<svg xmlns="http://www.w3.org/2000/svg" width="1200" height="675" viewBox="0 0 1200 675" role="img" aria-labelledby="title desc">
  <title id="title">컨포트랩 제조 데이터 플랫폼 연결 흐름</title>
  <desc id="desc">설비 신호, 게이트웨이, 노코드 운영 화면, 제조 AI 분석으로 이어지는 데이터 흐름 다이어그램</desc>
  <defs>
    <linearGradient id="bg" x1="0" x2="1" y1="0" y2="1">
      <stop offset="0" stop-color="#061114"/>
      <stop offset="0.55" stop-color="#0b2730"/>
      <stop offset="1" stop-color="#101416"/>
    </linearGradient>
    <linearGradient id="accent" x1="0" x2="1" y1="0" y2="0">
      <stop offset="0" stop-color="#00a7d8"/>
      <stop offset="1" stop-color="#a7dc37"/>
    </linearGradient>
    <filter id="shadow" x="-20%" y="-20%" width="140%" height="140%">
      <feDropShadow dx="0" dy="18" stdDeviation="18" flood-color="#000" flood-opacity=".26"/>
    </filter>
  </defs>
  <rect width="1200" height="675" fill="url(#bg)"/>
  <path d="M0 520C210 430 318 530 520 442C738 347 888 310 1200 380V675H0Z" fill="#102329" opacity=".7"/>
  <g stroke="#1d5360" stroke-width="1" opacity=".45">
    <path d="M100 0V675M240 0V675M380 0V675M520 0V675M660 0V675M800 0V675M940 0V675M1080 0V675"/>
    <path d="M0 110H1200M0 240H1200M0 370H1200M0 500H1200M0 630H1200"/>
  </g>
  <text x="72" y="86" fill="#fff" font-family="Pretendard, Apple SD Gothic Neo, Arial, sans-serif" font-size="34" font-weight="800">컨포트랩 제조 데이터 플랫폼</text>
  <text x="72" y="130" fill="#b7c3c8" font-family="Pretendard, Apple SD Gothic Neo, Arial, sans-serif" font-size="19" font-weight="700">현장 신호를 운영 질문 단위로 정리해 AI 분석까지 연결합니다.</text>
  <g filter="url(#shadow)">
    <g transform="translate(72 212)">
      <rect width="214" height="184" rx="8" fill="#fff" opacity=".96"/>
      <text x="28" y="48" fill="#0089a6" font-size="18" font-family="Pretendard, Apple SD Gothic Neo, Arial, sans-serif" font-weight="900">01</text>
      <text x="28" y="92" fill="#101416" font-size="30" font-family="Pretendard, Apple SD Gothic Neo, Arial, sans-serif" font-weight="900">설비 신호</text>
      <text x="28" y="132" fill="#536169" font-size="18" font-family="Pretendard, Apple SD Gothic Neo, Arial, sans-serif" font-weight="700">PLC, 센서, 알람,</text>
      <text x="28" y="160" fill="#536169" font-size="18" font-family="Pretendard, Apple SD Gothic Neo, Arial, sans-serif" font-weight="700">작업 조건 수집</text>
    </g>
    <g transform="translate(348 212)">
      <rect width="214" height="184" rx="8" fill="#fff" opacity=".96"/>
      <text x="28" y="48" fill="#0089a6" font-size="18" font-family="Pretendard, Apple SD Gothic Neo, Arial, sans-serif" font-weight="900">02</text>
      <text x="28" y="92" fill="#101416" font-size="30" font-family="Pretendard, Apple SD Gothic Neo, Arial, sans-serif" font-weight="900">게이트웨이</text>
      <text x="28" y="132" fill="#536169" font-size="18" font-family="Pretendard, Apple SD Gothic Neo, Arial, sans-serif" font-weight="700">프로토콜 변환과</text>
      <text x="28" y="160" fill="#536169" font-size="18" font-family="Pretendard, Apple SD Gothic Neo, Arial, sans-serif" font-weight="700">시간 기준 정렬</text>
    </g>
    <g transform="translate(624 212)">
      <rect width="214" height="184" rx="8" fill="#fff" opacity=".96"/>
      <text x="28" y="48" fill="#0089a6" font-size="18" font-family="Pretendard, Apple SD Gothic Neo, Arial, sans-serif" font-weight="900">03</text>
      <text x="28" y="92" fill="#101416" font-size="30" font-family="Pretendard, Apple SD Gothic Neo, Arial, sans-serif" font-weight="900">운영 화면</text>
      <text x="28" y="132" fill="#536169" font-size="18" font-family="Pretendard, Apple SD Gothic Neo, Arial, sans-serif" font-weight="700">노코드 대시보드와</text>
      <text x="28" y="160" fill="#536169" font-size="18" font-family="Pretendard, Apple SD Gothic Neo, Arial, sans-serif" font-weight="700">현장별 입력폼</text>
    </g>
    <g transform="translate(900 212)">
      <rect width="214" height="184" rx="8" fill="#a7dc37"/>
      <text x="28" y="48" fill="#071013" font-size="18" font-family="Pretendard, Apple SD Gothic Neo, Arial, sans-serif" font-weight="900">04</text>
      <text x="28" y="92" fill="#071013" font-size="30" font-family="Pretendard, Apple SD Gothic Neo, Arial, sans-serif" font-weight="900">제조 AI</text>
      <text x="28" y="132" fill="#1b2a11" font-size="18" font-family="Pretendard, Apple SD Gothic Neo, Arial, sans-serif" font-weight="800">품질·정지·에너지</text>
      <text x="28" y="160" fill="#1b2a11" font-size="18" font-family="Pretendard, Apple SD Gothic Neo, Arial, sans-serif" font-weight="800">원인 후보 제안</text>
    </g>
  </g>
  <g fill="none" stroke="url(#accent)" stroke-width="5" stroke-linecap="round">
    <path d="M292 304H338"/>
    <path d="M568 304H614"/>
    <path d="M844 304H890"/>
  </g>
  <g transform="translate(72 472)">
    <rect width="1056" height="92" rx="8" fill="#0e191c" stroke="#2d454b"/>
    <text x="32" y="38" fill="#ffffff" font-size="22" font-family="Pretendard, Apple SD Gothic Neo, Arial, sans-serif" font-weight="900">검색 키워드 구조</text>
    <text x="32" y="68" fill="#b7c3c8" font-size="18" font-family="Pretendard, Apple SD Gothic Neo, Arial, sans-serif" font-weight="700">컨포트랩 · CONPORTLAB · 제조 데이터 플랫폼 · 스마트공장 구축 · 설비 데이터 수집 · 제조 AI 분석</text>
  </g>
</svg>
