<svg xmlns="http://www.w3.org/2000/svg" width="1200" height="675" viewBox="0 0 1200 675" role="img" aria-labelledby="title desc">
  <title id="title">컨포트랩 AI 품질관리와 예지보전 루프</title>
  <desc id="desc">품질 이상, 설비 신호, 원인 분석, 현장 조치가 반복되는 제조 AI 운영 루프</desc>
  <rect width="1200" height="675" fill="#f8fbfc"/>
  <g transform="translate(72 72)">
    <text x="0" y="34" fill="#101416" font-family="Pretendard, Apple SD Gothic Neo, Arial, sans-serif" font-size="36" font-weight="900">AI 품질관리·예지보전 운영 루프</text>
    <text x="0" y="78" fill="#5b6770" font-family="Pretendard, Apple SD Gothic Neo, Arial, sans-serif" font-size="19" font-weight="700">모델보다 먼저 데이터, 원인, 조치, 재학습 흐름이 닫혀야 합니다.</text>
  </g>
  <circle cx="600" cy="362" r="196" fill="#eaf4f7"/>
  <circle cx="600" cy="362" r="116" fill="#071013"/>
  <text x="600" y="348" text-anchor="middle" fill="#fff" font-family="Pretendard, Apple SD Gothic Neo, Arial, sans-serif" font-size="34" font-weight="900">컨포트랩</text>
  <text x="600" y="390" text-anchor="middle" fill="#a7dc37" font-family="Pretendard, Apple SD Gothic Neo, Arial, sans-serif" font-size="26" font-weight="900">Manufacturing AX</text>
  <g font-family="Pretendard, Apple SD Gothic Neo, Arial, sans-serif" font-weight="900">
    <g transform="translate(112 224)">
      <rect width="268" height="120" rx="8" fill="#fff" stroke="#d8e4e7"/>
      <text x="28" y="48" fill="#0089a6" font-size="18">품질 이상</text>
      <text x="28" y="86" fill="#101416" font-size="27">불량·편차 감지</text>
    </g>
    <g transform="translate(820 224)">
      <rect width="268" height="120" rx="8" fill="#fff" stroke="#d8e4e7"/>
      <text x="28" y="48" fill="#0089a6" font-size="18">설비 신호</text>
      <text x="28" y="86" fill="#101416" font-size="27">온도·진동·알람</text>
    </g>
    <g transform="translate(112 438)">
      <rect width="268" height="120" rx="8" fill="#fff" stroke="#d8e4e7"/>
      <text x="28" y="48" fill="#0089a6" font-size="18">AI 분석</text>
      <text x="28" y="86" fill="#101416" font-size="27">원인 후보 정렬</text>
    </g>
    <g transform="translate(820 438)">
      <rect width="268" height="120" rx="8" fill="#a7dc37"/>
      <text x="28" y="48" fill="#071013" font-size="18">현장 조치</text>
      <text x="28" y="86" fill="#071013" font-size="27">점검·정비·재발방지</text>
    </g>
  </g>
  <g fill="none" stroke="#00a7d8" stroke-width="7" stroke-linecap="round" stroke-linejoin="round">
    <path d="M383 282C450 220 530 186 606 186"/>
    <path d="M594 186l34 0-22 26"/>
    <path d="M820 282C750 226 675 190 606 186"/>
    <path d="M820 498C752 548 674 576 600 576"/>
    <path d="M612 576h-34l22-26"/>
    <path d="M380 498C452 552 528 576 600 576"/>
  </g>
</svg>
