<svg xmlns="http://www.w3.org/2000/svg" viewBox="0 0 1200 760" role="img" aria-labelledby="title desc">
  <title id="title">Operations dashboard</title>
  <desc id="desc">A stylized dashboard for production, quality, maintenance, and energy monitoring.</desc>
  <rect width="1200" height="760" fill="#f7f9f8"/>
  <rect x="70" y="64" width="1060" height="632" rx="28" fill="#101315"/>
  <rect x="112" y="116" width="280" height="528" rx="18" fill="#18252b"/>
  <rect x="432" y="116" width="300" height="250" rx="18" fill="#ffffff"/>
  <rect x="432" y="394" width="300" height="250" rx="18" fill="#ffffff"/>
  <rect x="772" y="116" width="316" height="528" rx="18" fill="#ffffff"/>
  <g fill="#00a7d8">
    <rect x="150" y="166" width="160" height="18" rx="9"/>
    <rect x="150" y="224" width="210" height="18" rx="9" opacity="0.62"/>
    <rect x="150" y="282" width="175" height="18" rx="9" opacity="0.62"/>
    <rect x="150" y="340" width="190" height="18" rx="9" opacity="0.62"/>
  </g>
  <g fill="#111416">
    <rect x="472" y="160" width="118" height="18" rx="9"/>
    <rect x="472" y="438" width="150" height="18" rx="9"/>
    <rect x="820" y="160" width="170" height="18" rx="9"/>
  </g>
  <g fill="none" stroke="#00a7d8" stroke-width="8" stroke-linecap="round" stroke-linejoin="round">
    <path d="M474 292c32-62 72-68 118-28s70 24 106-42"/>
    <path d="M474 570h62l34-72 50 46 72-92"/>
  </g>
  <g fill="#a7c943">
    <circle cx="820" cy="300" r="68"/>
    <circle cx="990" cy="300" r="68" opacity="0.45"/>
    <circle cx="905" cy="486" r="96" opacity="0.78"/>
  </g>
  <g fill="#111416">
    <rect x="808" y="596" width="246" height="16" rx="8"/>
    <rect x="808" y="628" width="176" height="16" rx="8" opacity="0.45"/>
  </g>
</svg>

