<svg xmlns="http://www.w3.org/2000/svg" viewBox="0 0 1400 900" role="img" aria-labelledby="title desc">
  <title id="title">Factory operation line</title>
  <desc id="desc">A stylized industrial production line with conveyors, sensors, and operations displays.</desc>
  <defs>
    <linearGradient id="sky" x1="0" x2="1" y1="0" y2="1">
      <stop offset="0" stop-color="#132126"/>
      <stop offset="0.55" stop-color="#243640"/>
      <stop offset="1" stop-color="#0b1114"/>
    </linearGradient>
    <linearGradient id="beam" x1="0" x2="1">
      <stop offset="0" stop-color="#00a7d8" stop-opacity="0.2"/>
      <stop offset="1" stop-color="#a7c943" stop-opacity="0.58"/>
    </linearGradient>
  </defs>
  <rect width="1400" height="900" fill="url(#sky)"/>
  <path d="M0 690h1400v210H0z" fill="#101315"/>
  <path d="M0 678h1400" stroke="#00a7d8" stroke-width="4" opacity="0.55"/>
  <g opacity="0.38" stroke="#d8e8ee" stroke-width="2">
    <path d="M130 120v540M310 90v570M490 122v540M670 86v574M850 122v540M1030 90v570M1210 122v540"/>
    <path d="M80 190h1240M50 320h1300M90 510h1220"/>
  </g>
  <g fill="#d8e8ee" opacity="0.92">
    <rect x="106" y="575" width="320" height="70" rx="8"/>
    <rect x="470" y="542" width="260" height="103" rx="8"/>
    <rect x="780" y="585" width="210" height="60" rx="8"/>
    <rect x="1038" y="520" width="250" height="125" rx="8"/>
  </g>
  <g fill="#1c2b32">
    <rect x="132" y="594" width="260" height="20" rx="6"/>
    <rect x="502" y="572" width="196" height="36" rx="6"/>
    <rect x="810" y="602" width="150" height="22" rx="6"/>
    <rect x="1072" y="550" width="182" height="52" rx="6"/>
  </g>
  <g stroke="#a7c943" stroke-width="8" stroke-linecap="round" opacity="0.9">
    <path d="M120 705c130-50 220-50 340 0s220 50 340 0 220-50 340 0"/>
    <path d="M220 455h920"/>
  </g>
  <g fill="#00a7d8">
    <circle cx="250" cy="455" r="12"/>
    <circle cx="530" cy="455" r="12"/>
    <circle cx="810" cy="455" r="12"/>
    <circle cx="1090" cy="455" r="12"/>
  </g>
  <g fill="#0b1114" stroke="#00a7d8" stroke-width="3">
    <rect x="180" y="235" width="220" height="140" rx="10"/>
    <rect x="528" y="205" width="260" height="165" rx="10"/>
    <rect x="890" y="235" width="270" height="140" rx="10"/>
  </g>
  <g stroke="url(#beam)" stroke-width="6" opacity="0.85">
    <path d="M230 292h110M230 326h84M575 260h160M575 304h130M942 292h164M942 326h118"/>
  </g>
</svg>

